<svg xmlns="http://www.w3.org/2000/svg" xmlns:xlink="http://www.w3.org/1999/xlink" width="28.49mm" height="72.378" version="1.2" viewBox="0 0 28.49 19.15"><desc>Generated by the Chemistry Development Kit (http://github.com/cdk)</desc><g fill="#444" stroke="#444" stroke-linecap="round" stroke-linejoin="round" stroke-width=".19"><rect width="29" height="20" x="0" y="0" fill="#FFF" stroke="none"/><g id="mol1" class="mol"><line id="mol1bnd1" x1="25.68" x2="20.64" y1="13.38" y2="13.38" class="bond"/><g id="mol1bnd2" class="bond"><line x1="22.67" x2="18.28" y1="10.84" y2="8.3"/><line x1="21.86" x2="18.28" y1="11.31" y2="9.24"/></g><line id="mol1bnd3" x1="22.67" x2="22.67" y1="10.84" y2="15.92" class="bond"/><g id="mol1bnd4" class="bond"><line x1="18.27" x2="22.67" y1="18.46" y2="15.92"/><line x1="18.27" x2="21.86" y1="17.52" y2="15.45"/></g><line id="mol1bnd5" x1="18.27" x2="13.88" y1="18.46" y2="15.92" class="bond"/><g id="mol1bnd6" class="bond"><line x1="13.88" x2="13.88" y1="10.84" y2="15.92"/><line x1="14.69" x2="14.69" y1="11.31" y2="15.45"/></g><line id="mol1bnd7" x1="18.28" x2="13.88" y1="8.3" y2="10.84" class="bond"/><line id="mol1bnd8" x1="13.88" x2="9.48" y1="10.84" y2="8.31" class="bond"/><g id="mol1bnd9" class="bond"><line x1="5.08" x2="9.48" y1="10.85" y2="8.31"/><line x1="5.08" x2="8.67" y1="9.91" y2="7.84"/></g><line id="mol1bnd10" x1="5.08" x2=".69" y1="10.85" y2="8.31" class="bond"/><g id="mol1bnd11" class="bond"><line x1=".69" x2=".69" y1="3.23" y2="8.31"/><line x1="1.5" x2="1.5" y1="3.7" y2="7.84"/></g><line id="mol1bnd12" x1=".69" x2="5.09" y1="3.23" y2=".69" class="bond"/><g id="mol1bnd13" class="bond"><line x1="9.48" x2="5.09" y1="3.23" y2=".69"/><line x1="8.67" x2="5.09" y1="3.69" y2="1.63"/></g><line id="mol1bnd14" x1="9.48" x2="9.48" y1="8.31" y2="3.23" class="bond"/><path id="mol1atm1" stroke="none" d="M26.92 12.65q-.29 .0 -.46 .19q-.17 .19 -.17 .54q.0 .34 .16 .54q.16 .19 .47 .19q.12 .0 .23 -.02q.11 -.02 .21 -.05v.2q-.1 .04 -.21 .05q-.11 .02 -.26 .02q-.28 .0 -.46 -.11q-.19 -.12 -.28 -.33q-.09 -.21 -.09 -.49q.0 -.27 .1 -.48q.1 -.21 .29 -.33q.2 -.12 .47 -.12q.29 .0 .5 .11l-.09 .19q-.08 -.04 -.19 -.07q-.1 -.03 -.23 -.03zM27.93 14.29h-.22v-1.92h.22v1.92z" class="atom"/></g></g></svg>