<svg xmlns="http://www.w3.org/2000/svg" xmlns:xlink="http://www.w3.org/1999/xlink" width="29.88mm" height="64.517" version="1.2" viewBox="0 0 29.88 17.07"><desc>Generated by the Chemistry Development Kit (http://github.com/cdk)</desc><g fill="#444" stroke="#444" stroke-linecap="round" stroke-linejoin="round" stroke-width=".19"><rect width="30" height="18" x="0" y="0" fill="#FFF" stroke="none"/><g id="mol1" class="mol"><line id="mol1bnd1" x1="2.1" x2="6.01" y1="6.74" y2="5.49" class="bond"/><line id="mol1bnd2" x1="6.01" x2="9.09" y1="5.49" y2="7.75" class="bond"/><line id="mol1bnd3" x1="11.12" x2="14.2" y1="7.75" y2="5.49" class="bond"/><g id="mol1bnd4" class="bond"><line x1="14.2" x2="12.64" y1="5.49" y2=".68"/><line x1="13.25" x2="12.05" y1="5.18" y2="1.49"/></g><line id="mol1bnd5" x1="12.64" x2="7.56" y1=".68" y2=".68" class="bond"/><g id="mol1bnd6" class="bond"><line x1="7.56" x2="6.01" y1=".68" y2="5.49"/><line x1="8.16" x2="6.96" y1="1.49" y2="5.18"/></g><line id="mol1bnd7" x1="14.2" x2="19.04" y1="5.49" y2="7.04" class="bond"/><line id="mol1bnd8" x1="19.04" x2="20.2" y1="7.04" y2="10.63" class="bond"/><line id="mol1bnd9" x1="21.69" x2="25.69" y1="11.87" y2="11.83" class="bond"/><g id="mol1bnd10" class="bond"><line x1="25.69" x2="27.23" y1="11.83" y2="7.01"/><line x1="25.1" x2="26.28" y1="11.02" y2="7.33"/></g><line id="mol1bnd11" x1="27.23" x2="23.11" y1="7.01" y2="4.05" class="bond"/><g id="mol1bnd12" class="bond"><line x1="23.11" x2="19.04" y1="4.05" y2="7.04"/><line x1="23.12" x2="19.99" y1="5.05" y2="7.35"/></g><line id="mol1bnd13" x1="25.69" x2="28.15" y1="11.83" y2="15.16" class="bond"/><path id="mol1atm1" stroke="none" d="M1.33 6.45l-.05 .45l.46 -.13l.04 .31l-.42 .03l.27 .37l-.28 .15l-.19 -.39l-.17 .38l-.29 -.15l.27 -.37l-.42 -.03l.05 -.31l.45 .13l-.05 -.45h.33z" class="atom"/><g id="mol1atm3" class="atom"><path stroke="none" d="M10.82 9.4h-.27l-.97 -1.5v.0q.01 .09 .01 .22q.01 .13 .01 .27v1.01h-.21v-1.81h.26l.96 1.5h.01q-.0 -.04 -.01 -.12q-.0 -.08 -.01 -.18q-.0 -.1 -.0 -.18v-1.02h.21v1.81z"/><path stroke="none" d="M10.77 11.42h-.23v-.84h-.92v.84h-.23v-1.81h.23v.76h.92v-.76h.23v1.81z"/></g><g id="mol1atm8" class="atom"><path stroke="none" d="M21.32 12.79h-.27l-.97 -1.5v.0q.01 .09 .01 .22q.01 .13 .01 .27v1.01h-.21v-1.81h.26l.96 1.5h.01q-.0 -.04 -.01 -.12q-.0 -.08 -.01 -.18q-.0 -.1 -.0 -.18v-1.02h.21v1.81z"/><path stroke="none" d="M19.68 12.79h-.23v-.84h-.92v.84h-.23v-1.81h.23v.76h.92v-.76h.23v1.81z"/></g><path id="mol1atm12" stroke="none" d="M28.87 15.32l-.05 .45l.46 -.13l.04 .31l-.42 .03l.27 .37l-.28 .15l-.19 -.39l-.17 .38l-.29 -.15l.27 -.37l-.42 -.03l.05 -.31l.45 .13l-.05 -.45h.33z" class="atom"/><path fill="none" stroke="#444" stroke-width=".19" d="M3.76 3.81l-.87 .28l1.4 4.35l.87 -.28"/><path fill="none" stroke="#444" stroke-width=".19" d="M28.5 11.78l.54 .74l-3.68 2.71l-.54 -.74"/><path stroke="none" d="M25.95 15.55q.15 .0 .22 .07q.07 .07 .07 .23v.53h-.13v-.52q.0 -.2 -.18 -.2q-.14 .0 -.19 .08q-.05 .07 -.05 .22v.42h-.13v-.81h.11l.02 .11v.0q.04 -.06 .11 -.09q.07 -.03 .15 -.03z"/></g></g></svg>