<svg xmlns="http://www.w3.org/2000/svg" xmlns:xlink="http://www.w3.org/1999/xlink" width="54.36mm" height="89.008" version="1.2" viewBox="0 0 54.36 23.55"><desc>Generated by the Chemistry Development Kit (http://github.com/cdk)</desc><g fill="#444" stroke="#444" stroke-linecap="round" stroke-linejoin="round" stroke-width=".19"><rect width="55" height="24" x="0" y="0" fill="#FFF" stroke="none"/><g id="mol1" class="mol"><line id="mol1bnd1" x1="5.74" x2="9.1" y1="6.04" y2="7.98" class="bond"/><line id="mol1bnd2" x1="9.1" x2="13.5" y1="7.98" y2="5.44" class="bond"/><line id="mol1bnd3" x1="13.5" x2="16.82" y1="5.44" y2="7.36" class="bond"/><line id="mol1bnd4" x1="18.99" x2="21.4" y1="7.36" y2="5.96" class="bond"/><line id="mol1bnd5" x1="23.09" x2="24.72" y1="4.51" y2="2.56" class="bond"/><g id="mol1bnd6" class="bond"><line x1="21.18" x2="19.57" y1="4.73" y2="2.82"/><line x1="21.8" x2="20.19" y1="4.21" y2="2.3"/></g><line id="mol1bnd7" x1="22.94" x2="25.62" y1="5.81" y2="7.36" class="bond"/><line id="mol1bnd8" x1="27.79" x2="31.1" y1="7.36" y2="5.44" class="bond"/><line id="mol1bnd9" x1="31.1" x2="35.5" y1="5.44" y2="7.98" class="bond"/><line id="mol1bnd10" x1="35.5" x2="39.9" y1="7.98" y2="5.44" class="bond"/><line id="mol1bnd11" x1="39.9" x2="43.22" y1="5.44" y2="7.36" class="bond"/><line id="mol1bnd12" x1="45.38" x2="48.7" y1="7.36" y2="5.44" class="bond"/><g id="mol1bnd13" class="bond"><line x1="48.7" x2="53.1" y1="5.44" y2="7.98"/><line x1="48.7" x2="52.29" y1="6.38" y2="8.45"/></g><line id="mol1bnd14" x1="53.1" x2="53.1" y1="7.98" y2="11.79" class="bond"/><path id="mol1bnd15" stroke="none" d="M35.59 7.98h-.19l-.35 3.78h.44h.44z" class="bond"/><line id="mol1bnd16" x1="36.58" x2="39.9" y1="13.69" y2="15.6" class="bond"/><line id="mol1bnd17" x1="39.9" x2="39.9" y1="15.6" y2="19.41" class="bond"/><g id="mol1bnd18" class="bond"><line x1="39.49" x2="43.01" y1="15.37" y2="13.34"/><line x1="39.9" x2="43.42" y1="16.07" y2="14.04"/></g><g id="mol1atm1" class="atom"><path stroke="none" d="M5.42 6.35h-.27l-.97 -1.5v.0q.01 .09 .01 .22q.01 .13 .01 .27v1.01h-.21v-1.81h.26l.96 1.5h.01q-.0 -.04 -.01 -.12q-.0 -.08 -.01 -.18q-.0 -.1 -.0 -.18v-1.02h.21v1.81z"/><path stroke="none" d="M2.86 6.35h-.23v-.84h-.92v.84h-.23v-1.81h.23v.76h.92v-.76h.23v1.81z"/><path stroke="none" d="M3.75 6.06q.0 .11 -.06 .18q-.06 .06 -.16 .08v.01q.13 .02 .19 .08q.06 .07 .06 .17q.0 .09 -.04 .17q-.04 .07 -.14 .11q-.09 .04 -.24 .04q-.09 .0 -.16 -.01q-.07 -.01 -.14 -.05v-.12q.07 .03 .15 .05q.08 .02 .15 .02q.15 .0 .21 -.06q.07 -.06 .07 -.16q.0 -.1 -.08 -.14q-.08 -.05 -.22 -.05h-.11v-.11h.11q.14 .0 .2 -.05q.07 -.06 .07 -.15q.0 -.08 -.05 -.12q-.05 -.04 -.14 -.04q-.09 .0 -.15 .03q-.06 .03 -.12 .07l-.07 -.09q.06 -.05 .14 -.08q.09 -.03 .2 -.03q.17 .0 .25 .08q.08 .07 .08 .19z"/><path stroke="none" d="M.97 4.49h.3v.11h-.3v.31h-.11v-.31h-.3v-.11h.3v-.31h.11v.31z"/></g><path id="mol1atm4" stroke="none" d="M18.74 7.98q.0 .28 -.09 .49q-.09 .21 -.28 .33q-.19 .12 -.46 .12q-.28 .0 -.47 -.12q-.19 -.12 -.28 -.33q-.09 -.21 -.09 -.49q.0 -.28 .09 -.48q.09 -.21 .28 -.33q.19 -.12 .47 -.12q.27 .0 .46 .12q.19 .12 .28 .33q.09 .21 .09 .49zM17.31 7.98q.0 .34 .14 .54q.15 .19 .45 .19q.31 .0 .45 -.19q.14 -.2 .14 -.54q.0 -.34 -.14 -.53q-.14 -.19 -.45 -.19q-.31 .0 -.45 .19q-.14 .19 -.14 .53z" class="atom"/><path id="mol1atm5" stroke="none" d="M22.2 4.54q.35 .0 .51 .14q.16 .14 .16 .39q.0 .15 -.07 .28q-.07 .13 -.23 .21q-.16 .08 -.43 .08h-.21v.7h-.23v-1.81h.48zM22.18 4.73h-.23v.71h.18q.26 .0 .39 -.08q.13 -.09 .13 -.29q.0 -.17 -.11 -.26q-.11 -.09 -.35 -.09z" class="atom"/><g id="mol1atm6" class="atom"><path stroke="none" d="M26.4 1.55q.0 .28 -.09 .49q-.09 .21 -.28 .33q-.19 .12 -.46 .12q-.28 .0 -.47 -.12q-.19 -.12 -.28 -.33q-.09 -.21 -.09 -.49q.0 -.28 .09 -.48q.09 -.21 .28 -.33q.19 -.12 .47 -.12q.27 .0 .46 .12q.19 .12 .28 .33q.09 .21 .09 .49zM24.98 1.55q.0 .34 .14 .54q.15 .19 .45 .19q.31 .0 .45 -.19q.14 -.2 .14 -.54q.0 -.34 -.14 -.53q-.14 -.19 -.45 -.19q-.31 .0 -.45 .19q-.14 .19 -.14 .53z"/><path stroke="none" d="M26.61 .56h.95v.13h-.95v-.13z"/></g><path id="mol1atm7" stroke="none" d="M19.87 1.55q.0 .28 -.09 .49q-.09 .21 -.28 .33q-.19 .12 -.46 .12q-.28 .0 -.47 -.12q-.19 -.12 -.28 -.33q-.09 -.21 -.09 -.49q.0 -.28 .09 -.48q.09 -.21 .28 -.33q.19 -.12 .47 -.12q.27 .0 .46 .12q.19 .12 .28 .33q.09 .21 .09 .49zM18.44 1.55q.0 .34 .14 .54q.15 .19 .45 .19q.31 .0 .45 -.19q.14 -.2 .14 -.54q.0 -.34 -.14 -.53q-.14 -.19 -.45 -.19q-.31 .0 -.45 .19q-.14 .19 -.14 .53z" class="atom"/><path id="mol1atm8" stroke="none" d="M27.54 7.98q.0 .28 -.09 .49q-.09 .21 -.28 .33q-.19 .12 -.46 .12q-.28 .0 -.47 -.12q-.19 -.12 -.28 -.33q-.09 -.21 -.09 -.49q.0 -.28 .09 -.48q.09 -.21 .28 -.33q.19 -.12 .47 -.12q.27 .0 .46 .12q.19 .12 .28 .33q.09 .21 .09 .49zM26.11 7.98q.0 .34 .14 .54q.15 .19 .45 .19q.31 .0 .45 -.19q.14 -.2 .14 -.54q.0 -.34 -.14 -.53q-.14 -.19 -.45 -.19q-.31 .0 -.45 .19q-.14 .19 -.14 .53z" class="atom"/><path id="mol1atm12" stroke="none" d="M45.13 7.98q.0 .28 -.09 .49q-.09 .21 -.28 .33q-.19 .12 -.46 .12q-.28 .0 -.47 -.12q-.19 -.12 -.28 -.33q-.09 -.21 -.09 -.49q.0 -.28 .09 -.48q.09 -.21 .28 -.33q.19 -.12 .47 -.12q.27 .0 .46 .12q.19 .12 .28 .33q.09 .21 .09 .49zM43.71 7.98q.0 .34 .14 .54q.15 .19 .45 .19q.31 .0 .45 -.19q.14 -.2 .14 -.54q.0 -.34 -.14 -.53q-.14 -.19 -.45 -.19q-.31 .0 -.45 .19q-.14 .19 -.14 .53z" class="atom"/><path id="mol1atm15" stroke="none" d="M52.39 13.97l.38 -1.81h.44q.27 .0 .43 .12q.16 .12 .16 .38q.0 .22 -.11 .35q-.11 .13 -.29 .19l.32 .77h-.41l-.26 -.69h-.15l-.15 .69h-.38zM53.08 12.96q.16 .0 .25 -.07q.09 -.07 .09 -.22q.0 -.2 -.24 -.2h-.09l-.11 .49h.1z" class="atom"/><path id="mol1atm16" stroke="none" d="M36.33 13.06q.0 .28 -.09 .49q-.09 .21 -.28 .33q-.19 .12 -.46 .12q-.28 .0 -.47 -.12q-.19 -.12 -.28 -.33q-.09 -.21 -.09 -.49q.0 -.28 .09 -.48q.09 -.21 .28 -.33q.19 -.12 .47 -.12q.27 .0 .46 .12q.19 .12 .28 .33q.09 .21 .09 .49zM34.91 13.06q.0 .34 .14 .54q.15 .19 .45 .19q.31 .0 .45 -.19q.14 -.2 .14 -.54q.0 -.34 -.14 -.53q-.14 -.19 -.45 -.19q-.31 .0 -.45 .19q-.14 .19 -.14 .53z" class="atom"/><path id="mol1atm18" stroke="none" d="M39.19 21.59l.38 -1.81h.44q.27 .0 .43 .12q.16 .12 .16 .38q.0 .22 -.11 .35q-.11 .13 -.29 .19l.32 .77h-.41l-.26 -.69h-.15l-.15 .69h-.38zM39.88 20.58q.16 .0 .25 -.07q.09 -.07 .09 -.22q.0 -.2 -.24 -.2h-.09l-.11 .49h.1z" class="atom"/><path id="mol1atm19" stroke="none" d="M45.13 13.06q.0 .28 -.09 .49q-.09 .21 -.28 .33q-.19 .12 -.46 .12q-.28 .0 -.47 -.12q-.19 -.12 -.28 -.33q-.09 -.21 -.09 -.49q.0 -.28 .09 -.48q.09 -.21 .28 -.33q.19 -.12 .47 -.12q.27 .0 .46 .12q.19 .12 .28 .33q.09 .21 .09 .49zM43.71 13.06q.0 .34 .14 .54q.15 .19 .45 .19q.31 .0 .45 -.19q.14 -.2 .14 -.54q.0 -.34 -.14 -.53q-.14 -.19 -.45 -.19q-.31 .0 -.45 .19q-.14 .19 -.14 .53z" class="atom"/></g></g></svg>