<svg xmlns="http://www.w3.org/2000/svg" xmlns:xlink="http://www.w3.org/1999/xlink" width="41.45mm" height="55.068" version="1.2" viewBox="0 0 41.45 14.57"><desc>Generated by the Chemistry Development Kit (http://github.com/cdk)</desc><g fill="#444" stroke="#444" stroke-linecap="round" stroke-linejoin="round" stroke-width=".19"><rect width="42" height="15" x="0" y="0" fill="#FFF" stroke="none"/><g id="mol1" class="mol"><line id="mol1bnd1" x1="39.44" x2="35.88" y1="11.25" y2="9.2" class="bond"/><g id="mol1bnd2" class="bond"><line x1="35.48" x2="35.48" y1="9.43" y2="5.42"/><line x1="36.29" x2="36.29" y1="9.43" y2="5.42"/></g><line id="mol1bnd3" x1="35.88" x2="31.48" y1="9.2" y2="11.74" class="bond"/><line id="mol1bnd4" x1="31.48" x2="27.08" y1="11.74" y2="9.2" class="bond"/><line id="mol1bnd5" x1="27.08" x2="27.08" y1="9.2" y2="4.12" class="bond"/><line id="mol1bnd6" x1="27.08" x2="23.77" y1="9.2" y2="11.11" class="bond"/><line id="mol1bnd7" x1="21.6" x2="18.28" y1="11.11" y2="9.2" class="bond"/><g id="mol1bnd8" class="bond"><line x1="17.88" x2="17.88" y1="9.43" y2="5.42"/><line x1="18.69" x2="18.69" y1="9.43" y2="5.42"/></g><line id="mol1bnd9" x1="18.28" x2="13.88" y1="9.2" y2="11.74" class="bond"/><line id="mol1bnd10" x1="13.88" x2="9.49" y1="11.74" y2="9.2" class="bond"/><line id="mol1bnd11" x1="9.49" x2="5.09" y1="9.2" y2="11.74" class="bond"/><line id="mol1bnd12" x1="5.09" x2=".69" y1="11.74" y2="9.2" class="bond"/><line id="mol1bnd13" x1="9.49" x2="9.49" y1="9.2" y2="5.42" class="bond"/><line id="mol1bnd14" x1="8.4" x2="5.93" y1="3.49" y2="2.06" class="bond"/><path id="mol1atm1" stroke="none" d="M40.44 11.14l-.05 .45l.46 -.13l.04 .31l-.42 .03l.27 .37l-.28 .15l-.19 -.39l-.17 .38l-.29 -.15l.27 -.37l-.42 -.03l.05 -.31l.45 .13l-.05 -.45h.33z" class="atom"/><path id="mol1atm3" stroke="none" d="M36.72 4.11q.0 .28 -.09 .49q-.09 .21 -.28 .33q-.19 .12 -.46 .12q-.28 .0 -.47 -.12q-.19 -.12 -.28 -.33q-.09 -.21 -.09 -.49q.0 -.28 .09 -.48q.09 -.21 .28 -.33q.19 -.12 .47 -.12q.27 .0 .46 .12q.19 .12 .28 .33q.09 .21 .09 .49zM35.29 4.11q.0 .34 .14 .54q.15 .19 .45 .19q.31 .0 .45 -.19q.14 -.2 .14 -.54q.0 -.34 -.14 -.53q-.14 -.19 -.45 -.19q-.31 .0 -.45 .19q-.14 .19 -.14 .53z" class="atom"/><path id="mol1atm7" stroke="none" d="M23.52 11.73q.0 .28 -.09 .49q-.09 .21 -.28 .33q-.19 .12 -.46 .12q-.28 .0 -.47 -.12q-.19 -.12 -.28 -.33q-.09 -.21 -.09 -.49q.0 -.28 .09 -.48q.09 -.21 .28 -.33q.19 -.12 .47 -.12q.27 .0 .46 .12q.19 .12 .28 .33q.09 .21 .09 .49zM22.09 11.73q.0 .34 .14 .54q.15 .19 .45 .19q.31 .0 .45 -.19q.14 -.2 .14 -.54q.0 -.34 -.14 -.53q-.14 -.19 -.45 -.19q-.31 .0 -.45 .19q-.14 .19 -.14 .53z" class="atom"/><path id="mol1atm9" stroke="none" d="M19.12 4.11q.0 .28 -.09 .49q-.09 .21 -.28 .33q-.19 .12 -.46 .12q-.28 .0 -.47 -.12q-.19 -.12 -.28 -.33q-.09 -.21 -.09 -.49q.0 -.28 .09 -.48q.09 -.21 .28 -.33q.19 -.12 .47 -.12q.27 .0 .46 .12q.19 .12 .28 .33q.09 .21 .09 .49zM17.69 4.11q.0 .34 .14 .54q.15 .19 .45 .19q.31 .0 .45 -.19q.14 -.2 .14 -.54q.0 -.34 -.14 -.53q-.14 -.19 -.45 -.19q-.31 .0 -.45 .19q-.14 .19 -.14 .53z" class="atom"/><path id="mol1atm14" stroke="none" d="M10.32 4.11q.0 .28 -.09 .49q-.09 .21 -.28 .33q-.19 .12 -.46 .12q-.28 .0 -.47 -.12q-.19 -.12 -.28 -.33q-.09 -.21 -.09 -.49q.0 -.28 .09 -.48q.09 -.21 .28 -.33q.19 -.12 .47 -.12q.27 .0 .46 .12q.19 .12 .28 .33q.09 .21 .09 .49zM8.89 4.11q.0 .34 .14 .54q.15 .19 .45 .19q.31 .0 .45 -.19q.14 -.2 .14 -.54q.0 -.34 -.14 -.53q-.14 -.19 -.45 -.19q-.31 .0 -.45 .19q-.14 .19 -.14 .53z" class="atom"/><path id="mol1atm15" stroke="none" d="M5.25 .98l-.05 .45l.46 -.13l.04 .31l-.42 .03l.27 .37l-.28 .15l-.19 -.39l-.17 .38l-.29 -.15l.27 -.37l-.42 -.03l.05 -.31l.45 .13l-.05 -.45h.33z" class="atom"/><path fill="none" stroke="#444" stroke-width=".19" d="M22.5 8.82h-.91v4.57h.91"/><path fill="none" stroke="#444" stroke-width=".19" d="M37.17 8.18h.91v4.57h-.91"/><path stroke="none" d="M39.3 12.34q.14 .0 .21 .07q.07 .07 .07 .23v.53h-.13v-.52q.0 -.19 -.17 -.19q-.12 .0 -.17 .07q-.05 .07 -.05 .2v.45h-.13v-.52q.0 -.19 -.17 -.19q-.12 .0 -.17 .08q-.05 .07 -.05 .22v.42h-.13v-.81h.11l.02 .11v.0q.04 -.06 .1 -.09q.06 -.03 .14 -.03q.19 .0 .25 .14v.0q.04 -.07 .11 -.1q.07 -.03 .15 -.03z"/><path fill="none" stroke="#444" stroke-width=".19" d="M21.04 9.03h.91v4.57h-.91"/><path fill="none" stroke="#444" stroke-width=".19" d="M8.2 .56h-.91v4.57h.91"/><path stroke="none" d="M22.91 13.18q.15 .0 .22 .07q.07 .07 .07 .23v.53h-.13v-.52q.0 -.2 -.18 -.2q-.14 .0 -.19 .08q-.05 .07 -.05 .22v.42h-.13v-.81h.11l.02 .11v.0q.04 -.06 .11 -.09q.07 -.03 .15 -.03z"/></g></g></svg>