<svg xmlns="http://www.w3.org/2000/svg" xmlns:xlink="http://www.w3.org/1999/xlink" width="44.88mm" height="99.893" version="1.2" viewBox="0 0 44.88 26.43"><desc>Generated by the Chemistry Development Kit (http://github.com/cdk)</desc><g fill="#444" stroke="#444" stroke-linecap="round" stroke-linejoin="round" stroke-width=".19"><rect width="45" height="27" x="0" y="0" fill="#FFF" stroke="none"/><g id="mol1" class="mol"><line id="mol1bnd1" x1="15.02" x2="12.63" y1="7.19" y2="11.34" class="bond"/><line id="mol1bnd2" x1="4.19" x2="9.07" y1="13.38" y2="13.38" class="bond"/><g id="mol1bnd3" class="bond"><line x1="7.04" x2="7.04" y1="10.85" y2="15.92"/><line x1="7.86" x2="7.86" y1="11.31" y2="15.45"/></g><line id="mol1bnd4" x1="7.04" x2="11.44" y1="15.92" y2="18.46" class="bond"/><g id="mol1bnd5" class="bond"><line x1="11.44" x2="15.84" y1="18.46" y2="15.92"/><line x1="11.44" x2="15.03" y1="17.52" y2="15.45"/></g><line id="mol1bnd6" x1="15.84" x2="15.84" y1="15.92" y2="10.85" class="bond"/><g id="mol1bnd7" class="bond"><line x1="15.84" x2="11.44" y1="10.85" y2="8.31"/><line x1="15.03" x2="11.44" y1="11.31" y2="9.25"/></g><line id="mol1bnd8" x1="7.04" x2="11.44" y1="10.85" y2="8.31" class="bond"/><line id="mol1bnd9" x1="15.84" x2="19.16" y1="10.85" y2="8.93" class="bond"/><line id="mol1bnd10" x1="21.33" x2="24.64" y1="8.93" y2="10.85" class="bond"/><g id="mol1bnd11" class="bond"><line x1="24.64" x2="24.64" y1="15.92" y2="10.85"/><line x1="23.83" x2="23.83" y1="15.45" y2="11.31"/></g><line id="mol1bnd12" x1="24.64" x2="20.24" y1="15.92" y2="18.46" class="bond"/><line id="mol1bnd13" x1="15.84" x2="20.24" y1="15.92" y2="18.46" class="bond"/><g id="mol1bnd14" class="bond"><line x1="20.65" x2="20.65" y1="18.23" y2="22.24"/><line x1="19.84" x2="19.84" y1="18.23" y2="22.24"/></g><line id="mol1bnd15" x1="24.64" x2="29.04" y1="10.85" y2="8.31" class="bond"/><g id="mol1bnd16" class="bond"><line x1="29.04" x2="29.04" y1="3.23" y2="8.31"/><line x1="29.85" x2="29.85" y1="3.7" y2="7.84"/></g><line id="mol1bnd17" x1="29.04" x2="33.43" y1="3.23" y2=".69" class="bond"/><g id="mol1bnd18" class="bond"><line x1="37.83" x2="33.43" y1="3.23" y2=".69"/><line x1="37.02" x2="33.43" y1="3.7" y2="1.63"/></g><line id="mol1bnd19" x1="37.83" x2="37.84" y1="3.23" y2="8.31" class="bond"/><g id="mol1bnd20" class="bond"><line x1="33.44" x2="37.84" y1="10.85" y2="8.31"/><line x1="33.44" x2="37.02" y1="9.91" y2="7.84"/></g><line id="mol1bnd21" x1="29.04" x2="33.44" y1="8.31" y2="10.85" class="bond"/><line id="mol1bnd22" x1="40.69" x2="35.8" y1="5.77" y2="5.77" class="bond"/><g id="mol1atm1" class="atom"><path stroke="none" d="M16.5 6.06q.0 .28 -.09 .49q-.09 .21 -.28 .33q-.19 .12 -.46 .12q-.28 .0 -.47 -.12q-.19 -.12 -.28 -.33q-.09 -.21 -.09 -.49q.0 -.28 .09 -.48q.09 -.21 .28 -.33q.19 -.12 .47 -.12q.27 .0 .46 .12q.19 .12 .28 .33q.09 .21 .09 .49zM15.08 6.06q.0 .34 .14 .54q.15 .19 .45 .19q.31 .0 .45 -.19q.14 -.2 .14 -.54q.0 -.34 -.14 -.53q-.14 -.19 -.45 -.19q-.31 .0 -.45 .19q-.14 .19 -.14 .53z"/><path stroke="none" d="M18.09 6.96h-.23v-.84h-.92v.84h-.23v-1.81h.23v.76h.92v-.76h.23v1.81z"/></g><g id="mol1atm3" class="atom"><path stroke="none" d="M3.81 13.38q.0 .28 -.09 .49q-.09 .21 -.28 .33q-.19 .12 -.46 .12q-.28 .0 -.47 -.12q-.19 -.12 -.28 -.33q-.09 -.21 -.09 -.49q.0 -.28 .09 -.48q.09 -.21 .28 -.33q.19 -.12 .47 -.12q.27 .0 .46 .12q.19 .12 .28 .33q.09 .21 .09 .49zM2.39 13.38q.0 .34 .14 .54q.15 .19 .45 .19q.31 .0 .45 -.19q.14 -.2 .14 -.54q.0 -.34 -.14 -.53q-.14 -.19 -.45 -.19q-.31 .0 -.45 .19q-.14 .19 -.14 .53z"/><path stroke="none" d="M1.94 14.29h-.23v-.84h-.92v.84h-.23v-1.81h.23v.76h.92v-.76h.23v1.81z"/></g><path id="mol1atm11" stroke="none" d="M21.08 8.31q.0 .28 -.09 .49q-.09 .21 -.28 .33q-.19 .12 -.46 .12q-.28 .0 -.47 -.12q-.19 -.12 -.28 -.33q-.09 -.21 -.09 -.49q.0 -.28 .09 -.48q.09 -.21 .28 -.33q.19 -.12 .47 -.12q.27 .0 .46 .12q.19 .12 .28 .33q.09 .21 .09 .49zM19.65 8.31q.0 .34 .14 .54q.15 .19 .45 .19q.31 .0 .45 -.19q.14 -.2 .14 -.54q.0 -.34 -.14 -.53q-.14 -.19 -.45 -.19q-.31 .0 -.45 .19q-.14 .19 -.14 .53z" class="atom"/><path id="mol1atm15" stroke="none" d="M21.08 23.54q.0 .28 -.09 .49q-.09 .21 -.28 .33q-.19 .12 -.46 .12q-.28 .0 -.47 -.12q-.19 -.12 -.28 -.33q-.09 -.21 -.09 -.49q.0 -.28 .09 -.48q.09 -.21 .28 -.33q.19 -.12 .47 -.12q.27 .0 .46 .12q.19 .12 .28 .33q.09 .21 .09 .49zM19.65 23.54q.0 .34 .14 .54q.15 .19 .45 .19q.31 .0 .45 -.19q.14 -.2 .14 -.54q.0 -.34 -.14 -.53q-.14 -.19 -.45 -.19q-.31 .0 -.45 .19q-.14 .19 -.14 .53z" class="atom"/><g id="mol1atm22" class="atom"><path stroke="none" d="M42.73 5.77q.0 .28 -.09 .49q-.09 .21 -.28 .33q-.19 .12 -.46 .12q-.28 .0 -.47 -.12q-.19 -.12 -.28 -.33q-.09 -.21 -.09 -.49q.0 -.28 .09 -.48q.09 -.21 .28 -.33q.19 -.12 .47 -.12q.27 .0 .46 .12q.19 .12 .28 .33q.09 .21 .09 .49zM41.3 5.77q.0 .34 .14 .54q.15 .19 .45 .19q.31 .0 .45 -.19q.14 -.2 .14 -.54q.0 -.34 -.14 -.53q-.14 -.19 -.45 -.19q-.31 .0 -.45 .19q-.14 .19 -.14 .53z"/><path stroke="none" d="M44.32 6.67h-.23v-.84h-.92v.84h-.23v-1.81h.23v.76h.92v-.76h.23v1.81z"/></g></g></g></svg>