<svg xmlns="http://www.w3.org/2000/svg" xmlns:xlink="http://www.w3.org/1999/xlink" width="42.1mm" height="84.586" version="1.2" viewBox="0 0 42.1 22.38"><desc>Generated by the Chemistry Development Kit (http://github.com/cdk)</desc><g fill="#444" stroke="#444" stroke-linecap="round" stroke-linejoin="round" stroke-width=".19"><rect width="43" height="23" x="0" y="0" fill="#FFF" stroke="none"/><g id="mol1" class="mol"><line id="mol1bnd1" x1="15.53" x2="18.85" y1="2.11" y2="4.03" class="bond"/><line id="mol1bnd2" x1="18.85" x2="18.85" y1="4.03" y2="9.11" class="bond"/><line id="mol1bnd3" x1="18.85" x2="15.53" y1="9.11" y2="11.02" class="bond"/><line id="mol1bnd4" x1="13.36" x2="10.05" y1="11.02" y2="9.11" class="bond"/><g id="mol1bnd5" class="bond"><line x1="9.64" x2="9.64" y1="9.34" y2="5.33"/><line x1="10.46" x2="10.46" y1="9.34" y2="5.33"/></g><line id="mol1bnd6" x1="10.05" x2="5.65" y1="9.11" y2="11.65" class="bond"/><line id="mol1bnd7" x1="5.65" x2="2.26" y1="11.65" y2="9.69" class="bond"/><line id="mol1bnd8" x1="18.85" x2="23.25" y1="9.11" y2="11.65" class="bond"/><line id="mol1bnd9" x1="23.25" x2="26.56" y1="11.65" y2="9.73" class="bond"/><line id="mol1bnd10" x1="28.73" x2="32.05" y1="9.73" y2="11.65" class="bond"/><g id="mol1bnd11" class="bond"><line x1="32.45" x2="32.45" y1="11.41" y2="15.43"/><line x1="31.64" x2="31.64" y1="11.41" y2="15.43"/></g><line id="mol1bnd12" x1="32.05" x2="36.45" y1="11.65" y2="9.11" class="bond"/><line id="mol1bnd13" x1="36.45" x2="39.83" y1="9.11" y2="11.06" class="bond"/><g id="mol1atm1" class="atom"><path stroke="none" d="M15.28 1.49q.0 .28 -.09 .49q-.09 .21 -.28 .33q-.19 .12 -.46 .12q-.28 .0 -.47 -.12q-.19 -.12 -.28 -.33q-.09 -.21 -.09 -.49q.0 -.28 .09 -.48q.09 -.21 .28 -.33q.19 -.12 .47 -.12q.27 .0 .46 .12q.19 .12 .28 .33q.09 .21 .09 .49zM13.86 1.49q.0 .34 .14 .54q.15 .19 .45 .19q.31 .0 .45 -.19q.14 -.2 .14 -.54q.0 -.34 -.14 -.53q-.14 -.19 -.45 -.19q-.31 .0 -.45 .19q-.14 .19 -.14 .53z"/><path stroke="none" d="M13.41 2.39h-.23v-.84h-.92v.84h-.23v-1.81h.23v.76h.92v-.76h.23v1.81z"/></g><path id="mol1atm4" stroke="none" d="M15.28 11.65q.0 .28 -.09 .49q-.09 .21 -.28 .33q-.19 .12 -.46 .12q-.28 .0 -.47 -.12q-.19 -.12 -.28 -.33q-.09 -.21 -.09 -.49q.0 -.28 .09 -.48q.09 -.21 .28 -.33q.19 -.12 .47 -.12q.27 .0 .46 .12q.19 .12 .28 .33q.09 .21 .09 .49zM13.86 11.65q.0 .34 .14 .54q.15 .19 .45 .19q.31 .0 .45 -.19q.14 -.2 .14 -.54q.0 -.34 -.14 -.53q-.14 -.19 -.45 -.19q-.31 .0 -.45 .19q-.14 .19 -.14 .53z" class="atom"/><path id="mol1atm6" stroke="none" d="M10.88 4.03q.0 .28 -.09 .49q-.09 .21 -.28 .33q-.19 .12 -.46 .12q-.28 .0 -.47 -.12q-.19 -.12 -.28 -.33q-.09 -.21 -.09 -.49q.0 -.28 .09 -.48q.09 -.21 .28 -.33q.19 -.12 .47 -.12q.27 .0 .46 .12q.19 .12 .28 .33q.09 .21 .09 .49zM9.46 4.03q.0 .34 .14 .54q.15 .19 .45 .19q.31 .0 .45 -.19q.14 -.2 .14 -.54q.0 -.34 -.14 -.53q-.14 -.19 -.45 -.19q-.31 .0 -.45 .19q-.14 .19 -.14 .53z" class="atom"/><path id="mol1atm8" stroke="none" d="M1.94 10.01h-.23v-.84h-.92v.84h-.23v-1.81h.23v.76h.92v-.76h.23v1.81z" class="atom"/><path id="mol1atm10" stroke="none" d="M28.48 9.11q.0 .28 -.09 .49q-.09 .21 -.28 .33q-.19 .12 -.46 .12q-.28 .0 -.47 -.12q-.19 -.12 -.28 -.33q-.09 -.21 -.09 -.49q.0 -.28 .09 -.48q.09 -.21 .28 -.33q.19 -.12 .47 -.12q.27 .0 .46 .12q.19 .12 .28 .33q.09 .21 .09 .49zM27.05 9.11q.0 .34 .14 .54q.15 .19 .45 .19q.31 .0 .45 -.19q.14 -.2 .14 -.54q.0 -.34 -.14 -.53q-.14 -.19 -.45 -.19q-.31 .0 -.45 .19q-.14 .19 -.14 .53z" class="atom"/><path id="mol1atm12" stroke="none" d="M32.88 16.73q.0 .28 -.09 .49q-.09 .21 -.28 .33q-.19 .12 -.46 .12q-.28 .0 -.47 -.12q-.19 -.12 -.28 -.33q-.09 -.21 -.09 -.49q.0 -.28 .09 -.48q.09 -.21 .28 -.33q.19 -.12 .47 -.12q.27 .0 .46 .12q.19 .12 .28 .33q.09 .21 .09 .49zM31.45 16.73q.0 .34 .14 .54q.15 .19 .45 .19q.31 .0 .45 -.19q.14 -.2 .14 -.54q.0 -.34 -.14 -.53q-.14 -.19 -.45 -.19q-.31 .0 -.45 .19q-.14 .19 -.14 .53z" class="atom"/><path id="mol1atm14" stroke="none" d="M41.54 12.55h-.23v-.84h-.92v.84h-.23v-1.81h.23v.76h.92v-.76h.23v1.81z" class="atom"/><path stroke="none" d="M4.68 11.66q.0 -.31 .09 -.59q.09 -.29 .29 -.52h.21q-.18 .24 -.27 .52q-.09 .29 -.09 .59q.0 .29 .09 .58q.09 .28 .27 .52h-.21q-.19 -.22 -.29 -.5q-.09 -.28 -.09 -.59z"/><path stroke="none" d="M6.62 11.66q.0 .31 -.09 .59q-.09 .28 -.28 .5h-.21q.17 -.24 .26 -.52q.09 -.28 .09 -.58q.0 -.3 -.09 -.59q-.09 -.29 -.26 -.52h.21q.19 .23 .28 .52q.09 .29 .09 .59z"/><path stroke="none" d="M6.83 13.08l-.28 -.4h.15l.21 .31l.21 -.31h.15l-.28 .4l.3 .42h-.15l-.22 -.32l-.22 .32h-.15l.29 -.42z"/><path stroke="none" d="M35.48 9.12q.0 -.31 .09 -.59q.09 -.29 .29 -.52h.21q-.18 .24 -.27 .52q-.09 .29 -.09 .59q.0 .29 .09 .58q.09 .28 .27 .52h-.21q-.19 -.22 -.29 -.5q-.09 -.28 -.09 -.59z"/><path stroke="none" d="M37.41 9.12q.0 .31 -.09 .59q-.09 .28 -.28 .5h-.21q.17 -.24 .26 -.52q.09 -.28 .09 -.58q.0 -.3 -.09 -.59q-.09 -.29 -.26 -.52h.21q.19 .23 .28 .52q.09 .29 .09 .59z"/><path stroke="none" d="M37.32 9.96h.14l.18 .46q.02 .06 .04 .12q.02 .05 .03 .1v.0q.01 -.04 .03 -.1q.02 -.06 .04 -.12l.16 -.46h.14l-.35 .93q-.04 .11 -.11 .18q-.07 .07 -.19 .07q-.04 .0 -.06 -.0q-.03 -.0 -.05 -.01v-.11q.02 .0 .04 .01q.02 .0 .05 .0q.07 .0 .11 -.04q.04 -.04 .07 -.1l.04 -.11l-.33 -.82z"/></g><g class="title mol1"><path fill="red" stroke="none" d="M18.11 20.67l-.37 -.53h.2l.28 .41l.28 -.41h.2l-.37 .53l.39 .55h-.2l-.3 -.43l-.3 .43h-.2l.39 -.55zM19.4 20.44h.4v.14h-.4v.42h-.15v-.42h-.4v-.14h.4v-.42h.15v.42zM19.91 20.14h.19l.24 .62q.03 .08 .05 .16q.02 .07 .04 .14v.0q.01 -.05 .04 -.13q.03 -.08 .06 -.17l.22 -.62h.19l-.47 1.24q-.06 .15 -.15 .24q-.09 .09 -.25 .09q-.05 .0 -.09 -.0q-.04 -.0 -.06 -.01v-.14q.02 .0 .05 .01q.03 .0 .07 .0q.09 .0 .15 -.05q.06 -.05 .09 -.14l.06 -.14l-.44 -1.09zM21.06 20.38v-.14h.93v.14h-.93zM21.06 20.78v-.14h.93v.14h-.93zM23.15 21.22h-.96v-.15l.38 -.38q.11 -.11 .18 -.19q.08 -.09 .11 -.17q.04 -.08 .04 -.18q.0 -.12 -.07 -.18q-.07 -.06 -.18 -.06q-.1 .0 -.18 .04q-.08 .04 -.16 .1l-.09 -.12q.09 -.07 .19 -.12q.11 -.05 .25 -.05q.2 .0 .32 .1q.12 .1 .12 .28q.0 .11 -.05 .21q-.05 .1 -.13 .2q-.08 .09 -.19 .2l-.3 .3v.01h.73v.16zM23.83 19.76q.19 .0 .31 .09q.12 .09 .12 .26q.0 .09 -.04 .15q-.04 .06 -.1 .11q-.06 .05 -.14 .09q.09 .04 .16 .09q.07 .05 .11 .12q.04 .07 .04 .17q.0 .18 -.13 .29q-.13 .1 -.34 .1q-.23 .0 -.36 -.1q-.12 -.1 -.12 -.28q.0 -.1 .04 -.17q.04 -.07 .11 -.12q.07 -.05 .15 -.09q-.1 -.06 -.18 -.15q-.07 -.09 -.07 -.22q.0 -.11 .06 -.19q.06 -.08 .15 -.11q.1 -.04 .22 -.04zM23.83 19.9q-.11 .0 -.18 .05q-.07 .05 -.07 .15q.0 .08 .04 .13q.04 .05 .09 .09q.06 .03 .13 .07q.11 -.04 .18 -.11q.07 -.06 .07 -.17q.0 -.1 -.07 -.15q-.07 -.05 -.19 -.05zM23.53 20.85q.0 .11 .08 .18q.08 .07 .23 .07q.15 .0 .23 -.07q.08 -.07 .08 -.18q.0 -.1 -.08 -.18q-.08 -.07 -.22 -.12l-.03 -.01q-.13 .06 -.2 .13q-.07 .07 -.07 .18z"/></g></g></svg>